<svg width="426" height="277" viewBox="0 0 426 277" fill="none" xmlns="http://www.w3.org/2000/svg">
    <path
        fill-rule="evenodd"
        clip-rule="evenodd"
        d="M410.525 178.018H419.296C421.227 178.018 423.07 176.964 424.034 175.298C425.042 173.632 425.042 171.524 424.12 169.813C423.901 169.416 401.703 130.154 346.605 134.325C346.911 128.62 346.956 122.92 346.692 117.348C346.692 116.864 346.605 116.385 346.427 115.901C343.091 105.591 330.632 75.5435 324.143 60.0132H337.391C340.417 60.0132 342.876 57.5577 342.876 54.4864V5.52677C342.876 2.45542 340.421 0 337.391 0H324.494C308.964 0 296.025 12.0622 294.62 27.2866H293.743L287.559 12.2854C286.724 10.2227 284.707 8.90814 282.471 8.90814H248.603C245.577 8.90814 243.118 11.3636 243.118 14.3936C243.118 17.4236 245.573 19.9203 248.603 19.9203H278.783L281.855 27.2907H280.102C278.345 27.2907 276.638 28.1671 275.629 29.6139C274.575 31.0607 274.315 32.9043 274.927 34.6157L310.022 134.854C308.443 144.328 297.038 205.524 267.205 205.524H222.065C210.528 205.524 198.639 194.512 198.023 173.5L216.844 127C217.327 125.859 217.369 124.544 217.017 123.358L211.053 103.487C207.105 90.4579 198.288 82.5171 186.089 81.1571L92.3862 75.0144C79.2244 75.0144 68.5223 85.762 68.5223 98.9238V120.593C52.7315 123.135 39.3052 129.893 28.6485 140.641C0.444242 168.982 0.750138 215.044 0.750138 217.016C0.795609 220 3.25103 222.455 6.27691 222.455H30.4467C33.2535 252.636 58.7006 276.02 89.2735 276.02C119.846 276.02 145.339 252.64 148.146 222.455H148.935L174.903 246.977C175.912 247.94 177.272 248.469 178.677 248.469H264.923C280.586 248.469 295.5 242.066 308.484 229.78C314.449 256.41 338.491 276.016 366.124 276.016C398.719 276.016 425.216 249.519 425.216 216.925C425.216 202.403 420.04 188.762 410.52 178.014L410.525 178.018ZM345.642 145.469C379.683 142.266 399.335 157.312 408.243 167.01H341.781C343.492 159.946 344.807 152.707 345.642 145.469ZM324.498 11.0122H331.868V49.001H324.498C314.015 49.001 305.504 40.4897 305.504 30.0066C305.504 19.5235 314.015 11.0122 324.498 11.0122ZM79.5386 98.9238C79.5386 91.8592 85.2845 86.0721 92.1712 86.0266L185.171 92.1238C194.518 93.2192 198.684 100.635 200.524 106.646L204.339 119.456H79.5386V98.9238ZM89.2776 265.008C64.8433 265.008 44.2698 246.497 41.5498 222.455H55.4556C58.1301 238.949 72.346 251.189 89.2776 251.189C106.209 251.189 120.466 238.949 123.1 222.455H137.051C134.29 246.497 113.757 265.008 89.2776 265.008ZM66.7283 222.455H111.868C109.367 232.719 100.067 240.177 89.2776 240.177C78.4887 240.177 69.2291 232.719 66.7283 222.455ZM303.354 219.384C292.036 231.227 278.742 237.457 264.923 237.457H181.761C181.191 237.457 180.637 237.238 180.223 236.845L154.9 212.936C153.892 211.968 152.532 211.402 151.126 211.402H11.9814C12.8164 199.249 16.8509 168.105 36.4612 148.363C48.3043 136.474 64.2274 130.464 83.7963 130.464H203.599L187.366 170.429C187.106 171.131 186.97 171.834 186.97 172.578C187.143 187.009 191.62 198.021 198.242 205.392C204.823 212.762 213.553 216.536 222.238 216.536H267.205C308.968 216.536 320.637 138.45 321.121 135.16C321.253 134.283 321.166 133.362 320.902 132.527L287.869 38.2988H295.678C297.96 46.1528 303.486 52.9073 310.811 56.6814C323.622 87.0807 332.877 110.114 335.729 118.58C335.816 120.729 335.862 122.833 335.862 124.983C335.862 161.963 323.403 198.463 303.354 219.388V219.384ZM366.129 265.008C340.599 265.008 319.232 244.434 318.095 219.033C326.648 207.847 333.758 193.722 338.714 178.014H394.296C406.796 187.05 414.212 201.572 414.212 216.925C414.212 243.422 392.671 265.004 366.133 265.004L366.129 265.008Z"
        fill="currentColor" />
    <path
        fill-rule="evenodd"
        clip-rule="evenodd"
        d="M366.174 186.045C349.197 186.045 335.424 199.819 335.424 216.755C335.424 233.691 349.197 247.464 366.174 247.464C383.152 247.464 396.884 233.691 396.884 216.755C396.884 199.819 383.11 186.045 366.174 186.045ZM366.174 236.845C355.075 236.845 346.039 227.85 346.039 216.755C346.039 205.66 355.075 196.665 366.174 196.665C377.273 196.665 386.268 205.66 386.268 216.755C386.268 227.85 377.232 236.845 366.174 236.845Z"
        fill="currentColor" />
</svg>